<?xml version="1.0" standalone="no"?><!DOCTYPE svg PUBLIC "-//W3C//DTD SVG 1.1//EN" "http://www.w3.org/Graphics/SVG/1.1/DTD/svg11.dtd"><svg t="1629266828471" class="icon" viewBox="0 0 1024 1024" version="1.1" xmlns="http://www.w3.org/2000/svg" p-id="34211" xmlns:xlink="http://www.w3.org/1999/xlink" width="200" height="200"><defs><style type="text/css"></style></defs><path d="M95.573333 307.2h768v546.133333h-768z" fill="#EF8918" p-id="34212"></path><path d="M864.068267 799.342933v55.466667h-768.853334v-55.466667z" fill="#BC4F04" p-id="34213"></path><path d="M863.573333 307.2h-768l140.8-170.666667h486.4z" fill="#EF8918" p-id="34214"></path><path d="M570.026667 307.2H389.973333l32.426667-170.666667h114.346667zM570.026667 562.346667l-45.226667-46.933334-45.226667 46.933334-44.373333-46.933334-45.226667 46.933334V307.2h180.053334zM242.346667 600.746667l-72.533334 80.213333h35.84v89.6h72.533334V680.96h36.693333zM310.613333 403.626667h-136.533333c-9.386667 0-17.066667-7.68-17.066667-17.066667s7.68-17.066667 17.066667-17.066667h136.533333c9.386667 0 17.066667 7.68 17.066667 17.066667s-7.68 17.066667-17.066667 17.066667zM310.613333 476.16h-136.533333c-9.386667 0-17.066667-7.68-17.066667-17.066667s7.68-17.066667 17.066667-17.066666h136.533333c9.386667 0 17.066667 7.68 17.066667 17.066666s-7.68 17.066667-17.066667 17.066667zM310.613333 548.693333h-136.533333c-9.386667 0-17.066667-7.68-17.066667-17.066666s7.68-17.066667 17.066667-17.066667h136.533333c9.386667 0 17.066667 7.68 17.066667 17.066667s-7.68 17.066667-17.066667 17.066666z" fill="#FFFFFF" p-id="34215"></path><path d="M756.906667 768.853333m-230.4 0a230.4 230.4 0 1 0 460.8 0 230.4 230.4 0 1 0-460.8 0Z" fill="#EFCF48" p-id="34216"></path><path d="M757.76 825.173333l-55.466667 29.866667 10.24-62.293333-46.08-43.52 62.293334-9.386667 28.16-57.173333 28.16 56.32 62.293333 8.533333-44.373333 44.373333 11.093333 62.293334z" fill="#FFFFFF" p-id="34217"></path><path d="M205.653333 779.093333h72.533334c5.12 0 8.533333-3.413333 8.533333-8.533333v-81.92h27.306667c3.413333 0 6.826667-1.706667 7.68-5.12s0.853333-6.826667-1.706667-9.386667L247.466667 594.773333c-3.413333-3.413333-9.386667-3.413333-12.8 0L162.133333 674.133333c-2.56 2.56-2.56 5.973333-1.706666 9.386667s4.266667 5.12 7.68 5.12h27.306666v81.92c1.706667 5.12 5.12 8.533333 10.24 8.533333z m-17.066666-106.666666l52.906666-58.026667 52.906667 58.026667h-17.066667c-5.12 0-8.533333 3.413333-8.533333 8.533333v81.92H213.333333v-81.92c0-5.12-3.413333-8.533333-8.533333-8.533333h-16.213333zM479.573333 203.093333c5.12 0 8.533333-3.413333 8.533334-8.533333v-8.533333c0-5.12-3.413333-8.533333-8.533334-8.533334s-8.533333 3.413333-8.533333 8.533334v8.533333c0 4.266667 4.266667 8.533333 8.533333 8.533333zM479.573333 262.826667c5.12 0 8.533333-3.413333 8.533334-8.533334v-8.533333c0-5.12-3.413333-8.533333-8.533334-8.533333s-8.533333 3.413333-8.533333 8.533333v8.533333c0 4.266667 4.266667 8.533333 8.533333 8.533334zM479.573333 399.36c5.12 0 8.533333-3.413333 8.533334-8.533333v-8.533334c0-5.12-3.413333-8.533333-8.533334-8.533333s-8.533333 3.413333-8.533333 8.533333v8.533334c0 4.266667 4.266667 8.533333 8.533333 8.533333zM479.573333 467.626667c5.12 0 8.533333-3.413333 8.533334-8.533334v-8.533333c0-5.12-3.413333-8.533333-8.533334-8.533333s-8.533333 3.413333-8.533333 8.533333v8.533333c0 4.266667 4.266667 8.533333 8.533333 8.533334zM310.613333 360.96h-136.533333c-14.506667 0-25.6 11.093333-25.6 25.6s11.093333 25.6 25.6 25.6h136.533333c14.506667 0 25.6-11.093333 25.6-25.6s-11.946667-25.6-25.6-25.6z m0 34.133333h-136.533333c-5.12 0-8.533333-3.413333-8.533333-8.533333s3.413333-8.533333 8.533333-8.533333h136.533333c5.12 0 8.533333 3.413333 8.533334 8.533333s-4.266667 8.533333-8.533334 8.533333zM310.613333 433.493333h-136.533333c-14.506667 0-25.6 11.093333-25.6 25.6s11.093333 25.6 25.6 25.6h136.533333c14.506667 0 25.6-11.093333 25.6-25.6s-11.946667-25.6-25.6-25.6z m0 34.133334h-136.533333c-5.12 0-8.533333-3.413333-8.533333-8.533334s3.413333-8.533333 8.533333-8.533333h136.533333c5.12 0 8.533333 3.413333 8.533334 8.533333s-4.266667 8.533333-8.533334 8.533334zM336.213333 531.626667c0-14.506667-11.093333-25.6-25.6-25.6h-136.533333c-14.506667 0-25.6 11.093333-25.6 25.6s11.093333 25.6 25.6 25.6h136.533333c13.653333 0 25.6-11.946667 25.6-25.6z m-25.6 8.533333h-136.533333c-5.12 0-8.533333-3.413333-8.533333-8.533333s3.413333-8.533333 8.533333-8.533334h136.533333c5.12 0 8.533333 3.413333 8.533334 8.533334s-4.266667 8.533333-8.533334 8.533333z" p-id="34218"></path><path d="M756.906667 529.92c-131.413333 0-238.933333 107.52-238.933334 238.933333 0 26.453333 4.266667 52.053333 12.8 75.946667h-426.666666V315.733333h276.48v246.613334c0 3.413333 1.706667 6.826667 5.12 7.68 0.853333 0 1.706667 0.853333 3.413333 0.853333 2.56 0 4.266667-0.853333 5.973333-2.56l39.253334-40.96 39.253333 40.96c1.706667 1.706667 4.266667 2.56 5.973333 2.56 2.56 0 4.266667-0.853333 5.973334-2.56l38.4-40.96 38.4 40.96c2.56 2.56 5.973333 3.413333 9.386666 1.706667 3.413333-1.706667 5.12-4.266667 5.12-7.68V315.733333H853.333333v234.666667c5.973333 2.56 11.093333 5.12 17.066667 8.533333V307.2c0-0.853333 0-1.706667-0.853333-2.56 0-0.853333-0.853333-1.706667-0.853334-1.706667l-140.8-170.666666c0-3.413333-2.56-4.266667-5.12-4.266667h-486.4c-2.56 0-5.12 0.853333-6.826666 3.413333l-140.8 170.666667c-0.853333 0.853333-0.853333 1.706667-0.853334 1.706667 0 0.853333-0.853333 1.706667-0.853333 2.56v546.133333c0 5.12 3.413333 8.533333 8.533333 8.533333h441.173334c36.693333 85.333333 121.173333 145.92 220.16 145.92 131.413333 0 238.933333-107.52 238.933333-238.933333s-106.666667-238.08-238.933333-238.08z m-195.413334 11.093333l-29.866666-32.426666c-1.706667-1.706667-4.266667-2.56-5.973334-2.56-2.56 0-4.266667 0.853333-5.973333 2.56l-39.253333 40.96-39.253334-40.96c-1.706667-1.706667-4.266667-2.56-5.973333-2.56s-4.266667 0.853333-5.973333 2.56l-30.72 32.426666V315.733333h162.986666v225.28zM718.506667 145.066667l127.146666 153.6H576.853333l-29.866666-153.6h171.52z m-288.426667 0h99.84l29.866667 153.6H400.213333l29.866667-153.6z m-189.44 0h171.52l-29.866667 153.6H114.346667l126.293333-153.6z m516.266667 845.653333c-122.026667 0-221.866667-99.84-221.866667-221.866667s99.84-221.866667 221.866667-221.866666 221.866667 99.84 221.866666 221.866666-98.986667 221.866667-221.866666 221.866667z" p-id="34219"></path><path d="M906.24 682.666667c-35.84-61.44-106.666667-94.72-176.64-83.626667-4.266667 0.853333-7.68 5.12-6.826667 9.386667 0.853333 4.266667 5.12 7.68 9.386667 6.826666 63.146667-10.24 127.146667 19.626667 158.72 75.093334 31.573333 55.466667 26.453333 125.44-14.506667 174.933333-3.413333 3.413333-2.56 9.386667 0.853334 11.946667 1.706667 1.706667 3.413333 1.706667 5.12 1.706666 2.56 0 5.12-0.853333 6.826666-3.413333 46.08-52.906667 52.053333-131.413333 17.066667-192.853333zM782.506667 921.6c-63.146667 10.24-127.146667-19.626667-158.72-75.093333-31.573333-55.466667-26.453333-125.44 14.506666-174.933334 3.413333-3.413333 2.56-9.386667-0.853333-11.946666-3.413333-3.413333-9.386667-2.56-11.946667 0.853333-45.226667 54.613333-51.2 133.12-16.213333 194.56 30.72 53.76 88.746667 85.333333 149.333333 85.333333 9.386667 0 17.92-0.853333 27.306667-2.56 4.266667-0.853333 7.68-5.12 6.826667-9.386666-1.706667-4.266667-5.973333-7.68-10.24-6.826667z" p-id="34220"></path><path d="M849.066667 738.986667l-58.026667-7.68-26.453333-52.053334c-1.706667-3.413333-5.12-5.12-7.68-5.12-3.413333 0-5.973333 1.706667-7.68 5.12l-25.6 52.906667-58.026667 8.533333c-3.413333 0.853333-5.973333 2.56-6.826667 5.973334-0.853333 3.413333 0 6.826667 2.56 8.533333l42.666667 40.96-9.386667 58.026667c-0.853333 3.413333 0.853333 6.826667 3.413334 8.533333 1.706667 0.853333 3.413333 1.706667 5.12 1.706667 1.706667 0 2.56 0 4.266666-0.853334L759.466667 836.266667l52.053333 27.306666c2.56 1.706667 5.973333 0.853333 9.386667-0.853333 2.56-1.706667 4.266667-5.12 3.413333-8.533333l-10.24-58.026667 41.813333-40.96c2.56-2.56 3.413333-5.973333 1.706667-8.533333-3.413333-5.12-5.973333-6.826667-8.533333-7.68z m-52.053334 46.933333c-1.706667 1.706667-2.56 5.12-2.56 7.68l7.68 45.226667-40.96-21.333334c-2.56-0.853333-5.12-0.853333-7.68 0l-40.106666 21.333334 7.68-45.226667c0.853333-2.56-0.853333-5.973333-2.56-7.68l-33.28-31.573333 45.226666-6.826667c2.56 0 5.12-2.56 5.973334-5.12l19.626666-40.96L776.533333 742.4c0.853333 2.56 3.413333 4.266667 6.826667 4.266667l45.226667 5.973333-31.573334 33.28z" p-id="34221"></path></svg>