<?xml version="1.0" standalone="no"?><!DOCTYPE svg PUBLIC "-//W3C//DTD SVG 1.1//EN" "http://www.w3.org/Graphics/SVG/1.1/DTD/svg11.dtd"><svg t="1629266754270" class="icon" viewBox="0 0 1024 1024" version="1.1" xmlns="http://www.w3.org/2000/svg" p-id="32510" xmlns:xlink="http://www.w3.org/1999/xlink" width="200" height="200"><defs><style type="text/css"></style></defs><path d="M769.1 338.9c-10.3-9-20.7-17.6-31.2-25.6-3.6-2.7-6.3-4.6-9.5-7 44.4-15.3 75.5-51.8 75.5-95 0-58.2-55.3-102.8-120.9-102.8-15.1 0-29 2.8-41.5 7.6-5.8 2.2-10.1 4.5-13.7 6.5-2.3 1-7.2-0.1-8.6-1.8l-0.1 0.1c-5-7.5-12.6-16.8-23.6-26.4-20.9-18.3-45.6-29.4-73.9-29.4s-53 11.2-73.9 29.3c-10.7 9.4-18.1 18.3-23.1 25.8-1.9 2.3-6.8 3.4-8.6 2.6-3.7-2.2-8.1-4.4-14.1-6.8-12.5-4.7-26.4-7.6-41.5-7.6-65.7 0-120.9 44.5-120.9 102.8 0 36.9 22.8 69 57.1 87.1-3.7 2.6-7.3 5.2-11 7.9-23.9 17.8-47.8 38.6-70.1 62.3-2.6 2.7-5 5.5-7.5 8.2 190.3-2 384.2 35.1 561.1-37.8z" fill="#FFD98D" p-id="32511"></path><path d="M769.1 338.9c-176.9 72.9-370.8 35.8-561 37.9-60.3 66.7-96.7 142.4-96.7 226 0 26.5 2.3 51.4 6.4 74.8 76.1-25.9 160.6-31.8 247.2-31.2-1-2.7-1.6-5.6-1.6-8.7 0-13.7 10.7-24.7 24.1-24.7h96.6v-24.7h-96.6c-13.3 0-24.1-11-24.1-24.7s10.7-24.7 24.1-24.7h98.8l-91.6-93.6c-9.4-9.7-9.4-25.3 0-34.9l0.6-0.6c9.4-9.1 24.5-8.8 33.6 0.6l79.5 81.3 79.5-81.3 0.6-0.6c9.4-9.1 24.5-8.8 33.6 0.6 9.4 9.7 9.4 25.3 0 34.9L530.4 539h98.7c13.3 0 24.1 11 24.1 24.7s-10.7 24.7-24.1 24.7h-96.6V613H629c13.3 0 24.1 11 24.1 24.7 0 5.9-2.1 11.2-5.4 15.5 99-2.2 190.9-16.5 264.9-65.9-4.7-76-43.3-146.8-104.4-211-12.7-13.4-25.8-25.8-39.1-37.4z" fill="#FFC166" p-id="32512"></path><path d="M629 662.4h-96.6v71.1c0 10.4-10.7 18.9-24.1 18.9-13.3 0-24.1-8.5-24.1-18.9v-71.1h-96.6c-10.3 0-19.1-6.7-22.5-16-86.6-0.6-171.2 5.3-247.2 31.2 33.6 190.5 197.4 281.7 390.5 281.7 90.9 0 179.8-18.2 251.7-60.9 97.5-58.1 153-155.7 153-295.6 0-5.2-0.2-10.4-0.5-15.6-73.9 49.4-165.8 63.8-264.9 65.9-4.5 5.6-11.1 9.3-18.7 9.3z" fill="#FFB000" p-id="32513"></path></svg>