<?xml version="1.0" standalone="no"?><!DOCTYPE svg PUBLIC "-//W3C//DTD SVG 1.1//EN" "http://www.w3.org/Graphics/SVG/1.1/DTD/svg11.dtd"><svg t="1629266704134" class="icon" viewBox="0 0 1024 1024" version="1.1" xmlns="http://www.w3.org/2000/svg" p-id="28217" xmlns:xlink="http://www.w3.org/1999/xlink" width="200" height="200"><defs><style type="text/css"></style></defs><path d="M593.92 457.386667m-341.333333 0a341.333333 341.333333 0 1 0 682.666666 0 341.333333 341.333333 0 1 0-682.666666 0Z" fill="#E9EAEB" p-id="28218"></path><path d="M416.426667 211.626667h27.306666v81.92h-27.306666z" fill="#BCC0C4" p-id="28219"></path><path d="M389.12 238.933333h81.92v27.306667h-81.92zM129.706667 375.466667h27.306666v81.92H129.706667z" fill="#BCC0C4" p-id="28220"></path><path d="M102.4 402.773333h81.92v27.306667H102.4zM826.026667 443.733333h27.306666v81.92h-27.306666z" fill="#BCC0C4" p-id="28221"></path><path d="M798.72 471.04h81.92v27.306667h-81.92z" fill="#BCC0C4" p-id="28222"></path><path d="M826.026667 894.293333h68.266666v27.306667h-68.266666zM921.6 894.293333h27.306667v27.306667h-27.306667zM75.093333 894.293333h27.306667v27.306667H75.093333z" fill="#2A5082" p-id="28223"></path><path d="M607.573333 552.96h150.186667v354.986667H607.573333z" fill="#FFFFFF" p-id="28224"></path><path d="M771.413333 921.6H593.92v-382.293333h177.493333v382.293333z m-150.186666-27.306667h122.88v-327.68h-122.88v327.68z" fill="#2A5082" p-id="28225"></path><path d="M197.973333 785.066667h150.186667v122.88H197.973333z" fill="#E9EAEB" p-id="28226"></path><path d="M361.813333 921.6H184.32v-150.186667h177.493333v150.186667z m-150.186666-27.306667h122.88v-95.573333h-122.88v95.573333z" fill="#2A5082" p-id="28227"></path><path d="M402.773333 703.146667h150.186667v204.8H402.773333z" fill="#E9EAEB" p-id="28228"></path><path d="M566.613333 921.6H389.12v-232.106667h177.493333v232.106667z m-150.186666-27.306667h122.88v-177.493333h-122.88v177.493333z" fill="#2A5082" p-id="28229"></path><path d="M129.706667 894.293333h669.013333v27.306667H129.706667z" fill="#2A5082" p-id="28230"></path><path d="M771.413333 225.28H614.4l39.594667 38.229333-202.069334 202.069334-106.496-106.496L124.245333 581.632l76.458667 77.824 135.168-135.168 106.496 105.130667L730.453333 341.333333l40.96 40.96z" fill="#A3D4FF" p-id="28231"></path><path d="M200.704 678.570667l-95.573333-96.938667 241.664-241.664 106.496 106.496L634.88 263.509333l-51.882667-51.882666H785.066667v203.434666l-54.613334-54.613333-288.085333 288.085333-106.496-106.496-135.168 136.533334zM143.36 581.632l57.344 58.709333 135.168-135.168 106.496 106.496L730.453333 322.218667l27.306667 27.306666v-109.226666h-109.226667l24.576 24.576-221.184 219.818666-106.496-106.496L143.36 581.632z" fill="#2A5082" p-id="28232"></path></svg>