<?xml version="1.0" standalone="no"?><!DOCTYPE svg PUBLIC "-//W3C//DTD SVG 1.1//EN" "http://www.w3.org/Graphics/SVG/1.1/DTD/svg11.dtd"><svg t="1629266723045" class="icon" viewBox="0 0 1024 1024" version="1.1" xmlns="http://www.w3.org/2000/svg" p-id="30346" xmlns:xlink="http://www.w3.org/1999/xlink" width="200" height="200"><defs><style type="text/css"></style></defs><path d="M513.1 924.108c-67.559-0.255-133.128-11.141-195.839-36.985-43.188-17.8-82.522-41.512-114.347-76.339-19.333-21.157-34.181-45.049-40.793-73.177-9.384-39.917-3.409-78.241 14.646-114.673 20.218-40.8 53.035-68.741 92.632-89.845 29.631-15.792 61.429-19.552 94.2-18.927 3.622 0.069 5.5-0.817 7.072-4.291 4.806-10.593 10.081-20.975 15.239-31.407 6.783-13.718 17.264-18.044 31.686-13.043 2.192 0.76 3.381 1.29 3.549-2 0.305-5.978 1.081-11.942 1.9-17.879 0.411-2.991-0.607-4.806-2.926-6.716C385 409.9 361.765 373.288 350.4 329.3c-7.007-27.107-7.128-54.555-2.65-82.141 3.936-24.246 10.848-47.5 22.915-68.95 20.187-35.885 50.647-59 90.2-69.589 38.992-10.436 78.077-9.721 116.251 3.813 43.087 15.275 71.613 45.717 87.844 88.072 9.7 25.323 15.536 51.591 15.625 78.676 0.2 62.673-24.523 114.409-71.055 155.864-4.612 4.108-6.293 7.73-4.99 13.6 1.04 4.681 1.167 9.581 1.492 14.4 0.18 2.667 0.568 3.76 3.792 2.8 12.491-3.706 22.4 0.542 28.333 12.116 5.154 10.06 10.355 20.13 14.784 30.516 2.5 5.872 5.632 7.936 12.178 7.723 21.17-0.689 42.5-0.2 62.888 5.921 46.115 13.853 85.8 37.579 113.063 78.627a151 151 0 0 1 24.791 69.612c1.513 15.516 2.7 31.268 1.743 46.773-1.463 23.721-10.152 45.482-22.833 65.56-21.11 33.423-50.354 58.237-83.815 78.424-42.6 25.7-88.829 41.9-137.391 51.908A540.172 540.172 0 0 1 513.1 924.108z m-0.109-398.269c9.31-0.261 18.625-0.432 27.926-0.88a7.612 7.612 0 0 0 4.2-2.2c12.368-11.389 24.712-22.8 36.883-34.4a7.843 7.843 0 0 0 1.992-5.513c-0.473-7.951-1.387-15.876-2.1-23.814-0.217-2.425-0.608-3.827-3.589-2.207a140.957 140.957 0 0 1-65.32 17.534c-4.473-0.279-8.963-0.405-13.417-0.865a138.13 138.13 0 0 1-50.125-15.409c-2.707-1.415-3.58-1.141-3.858 2.008-0.716 8.106-1.842 16.177-2.462 24.288a7.2 7.2 0 0 0 1.986 5.1c11.942 11.323 24.032 22.491 36.152 33.624a6.766 6.766 0 0 0 3.844 1.835c9.29 0.418 18.59 0.624 27.887 0.899z m36.935 18.813c-14.864 0.414-29.727 1.1-44.592 1.147-9.569 0.032-19.141-0.868-28.712-1.35-1.667-0.969-3.581-1.671-4.965-2.947q-29.935-27.6-59.749-55.326c-4.629-4.288-5.463-4.147-8.193 1.417-7.39 15.063-14.626 30.2-22.22 45.163-1.471 2.9-1.344 4.81 0.173 7.553Q413.749 598.342 445.6 656.5q18.26 33.19 36.618 66.325c6.524 11.958 12.9 24 19.619 35.847 5.072 8.95 15.829 9.437 21.061 0.614 7.2-12.135 13.583-24.75 20.317-37.159 0.962-1.537 2-3.031 2.874-4.616q48.037-87.063 96.152-174.082c2.26-4.072 2.434-7.124 0.336-11.242-7.161-14.056-13.909-28.322-20.829-42.5-3.179-6.513-4.318-6.757-9.6-1.851q-28.736 26.667-57.45 53.36a47.323 47.323 0 0 1-4.773 3.457zM513 453.979c17.356 0.81 33.62-3.719 48.954-11.2 40.592-19.811 67.821-52.078 85.228-93.194a12.684 12.684 0 0 0 0.837-4.817q0.072-49.732-0.049-99.464a9.8 9.8 0 0 0-2.04-5.77q-21.162-25.618-42.7-50.92A8.143 8.143 0 0 0 597 186.2c-28.024 3.839-56.011 7.954-84.007 12q-37.993-5.912-75.972-11.84c-2.966-0.464-5.532-0.924-8.09 1.871-15.75 17.211-31.747 34.195-47.552 51.355a8.656 8.656 0 0 0-2.277 5.165q-0.859 49.737-1.363 99.479a18.413 18.413 0 0 0 1.359 7.25c14.176 33.1 35.542 60.476 65.6 80.574 20.602 13.772 43.056 22.352 68.302 21.925z m-0.058 449.9a358.1 358.1 0 0 0 65.037-3.919c21.239-3.3 42.6-6.428 63.446-11.528 37.436-9.159 73.241-22.908 106.456-42.823 31.721-19.02 59.8-41.961 79.843-73.666 10.91-17.261 18.421-35.893 20.025-56.222a192.75 192.75 0 0 0-2.745-51.623c-6.579-34.242-22.468-63.2-49.749-85.071-35.454-28.421-75.467-44.768-121.751-43.1-3.415 0.123-5.417 1.09-7.091 4.151q-26.7 48.8-53.628 97.48c-22.534 40.944-45.176 81.83-67.489 122.9-7.222 13.292-15.49 24.557-32.421 24.89-13.961 0.017-23.326-6.878-29.814-18.939-12.849-23.888-26.04-47.593-39.1-71.365-27.41-49.879-55.035-99.641-82.048-149.734-4.689-8.7-9.451-13.885-19.721-10.456a1.715 1.715 0 0 1-0.5 0.018c-23.936 0.366-46.2 6.7-67.143 18.253-24.611 13.569-46.6 30.2-63.6 52.864A161.825 161.825 0 0 0 178.7 690.03a126.4 126.4 0 0 0 11.384 65.958c11.7 25.275 29.665 45.726 50.955 63.237 38.015 31.269 81.836 51.264 128.78 64.912 26.675 7.755 53.77 13.632 81.482 15.946 20.51 1.717 41.093 2.56 61.644 3.792z" fill="#353842" p-id="30347"></path><path d="M512.945 903.875c-20.551-1.232-41.134-2.079-61.645-3.792-27.712-2.314-54.807-8.191-81.482-15.946-46.943-13.648-90.764-33.643-128.78-64.912-21.289-17.511-39.253-37.963-50.955-63.237A126.4 126.4 0 0 1 178.7 690.03a161.825 161.825 0 0 1 32.248-84.054c17-22.665 38.992-39.3 63.6-52.864 20.944-11.548 43.208-17.886 67.143-18.253a1.715 1.715 0 0 0 0.5-0.018c10.27-3.429 15.032 1.76 19.721 10.456 27.013 50.093 54.638 99.855 82.048 149.734 13.064 23.772 26.254 47.477 39.1 71.365 6.487 12.061 15.853 18.956 29.815 18.937q0.038 59.267 0.07 118.542z" fill="#707A9A" p-id="30348"></path><path d="M512.945 903.875l-0.067-118.542c16.93-0.33 25.2-11.6 32.42-24.887 22.313-41.065 44.955-81.951 67.489-122.9q26.822-48.736 53.628-97.48c1.674-3.061 3.676-4.028 7.091-4.151 46.284-1.665 86.3 14.682 121.751 43.1 27.281 21.87 43.17 50.829 49.749 85.071a192.75 192.75 0 0 1 2.745 51.623c-1.6 20.329-9.115 38.961-20.025 56.222-20.04 31.705-48.122 54.647-79.843 73.666-33.215 19.916-69.02 33.665-106.456 42.823-20.844 5.1-42.207 8.224-63.446 11.528a358.1 358.1 0 0 1-65.036 3.927z m179.9-172.1c9.152 0 18.3 0.03 27.456-0.008 10.917-0.045 14.781-6.4 9.645-15.972-9.354-17.431-18.8-34.812-28.176-52.231-2-3.714-4.495-6.612-9.158-6.563-4.444 0.046-6.817 2.837-8.732 6.39-9.541 17.708-19.175 35.366-28.667 53.1-4.657 8.7-0.716 15.191 9.177 15.268 9.481 0.07 18.966 0.012 28.451 0.012z" fill="#5A6286" p-id="30349"></path><path d="M512.988 198.206c28-4.048 55.983-8.163 84.007-12a8.143 8.143 0 0 1 6.234 2.407q21.593 25.254 42.7 50.92a9.8 9.8 0 0 1 2.04 5.77q0.182 49.731 0.049 99.464a12.684 12.684 0 0 1-0.837 4.817c-17.407 41.116-44.635 73.383-85.228 93.194-15.334 7.484-31.6 12.012-48.954 11.2q0.001-127.885-0.011-255.772z" fill="#FEDFB8" p-id="30350"></path><path d="M512.988 198.206Q513 326.093 513 453.979c-25.249 0.427-47.7-8.153-68.3-21.924-30.061-20.1-51.428-47.472-65.6-80.574a18.413 18.413 0 0 1-1.359-7.25q0.525-49.741 1.363-99.479a8.656 8.656 0 0 1 2.277-5.165c15.805-17.16 31.8-34.145 47.552-51.355 2.557-2.795 5.123-2.335 8.09-1.871Q475 192.3 512.988 198.206z" fill="#F9EAD6" p-id="30351"></path><path d="M482.22 722.828q-18.313-33.161-36.62-66.328-31.963-58.1-63.934-116.193c-1.516-2.743-1.643-4.656-0.173-7.553 7.594-14.959 14.83-30.1 22.22-45.163 2.73-5.564 3.564-5.705 8.193-1.417q29.869 27.67 59.749 55.326c1.384 1.276 3.3 1.978 4.966 2.947 0.6 2.067 1.072 4.178 1.806 6.2 5.4 14.841 10.914 29.637 16.2 44.518a17.036 17.036 0 0 1 0.721 7.224q-4.047 39.2-8.347 78.372c-1.529 14.028-3.184 28.045-4.781 42.067z" fill="#FDFDFD" p-id="30352"></path><path d="M549.925 544.653a47.323 47.323 0 0 0 4.769-3.455q28.76-26.642 57.45-53.36c5.287-4.906 6.426-4.663 9.6 1.851 6.92 14.179 13.668 28.445 20.829 42.5 2.1 4.118 1.923 7.17-0.336 11.242q-48.247 86.943-96.147 174.082c-0.874 1.585-1.912 3.08-2.875 4.616l-3.176-28.729c-2.9-26.081-5.964-52.146-8.615-78.252-0.709-6.979-1.882-14.62 0.125-21.027 5.251-16.764 12.14-33.014 18.376-49.468z" fill="#FDFDFD" p-id="30353"></path><path d="M549.925 544.653c-6.236 16.455-13.126 32.7-18.376 49.468-2.007 6.408-0.833 14.048-0.125 21.027 2.652 26.106 5.713 52.171 8.615 78.252q1.6 14.363 3.176 28.729c-6.732 12.409-13.119 25.024-20.316 37.159-5.233 8.824-15.99 8.337-21.061-0.614-6.715-11.85-13.1-23.889-19.619-35.846 1.6-14.022 3.253-28.039 4.78-42.069q4.264-39.177 8.347-78.372a17.036 17.036 0 0 0-0.721-7.224c-5.283-14.88-10.8-29.677-16.2-44.518-0.733-2.017-1.209-4.128-1.806-6.2 9.57 0.482 19.142 1.382 28.711 1.35 14.87-0.045 29.731-0.728 44.595-1.142z" fill="#F5715A" p-id="30354"></path><path d="M512.985 474.36a140.957 140.957 0 0 0 65.32-17.534c2.981-1.62 3.372-0.219 3.589 2.207 0.711 7.938 1.625 15.862 2.1 23.814a7.843 7.843 0 0 1-1.994 5.512c-12.171 11.6-24.515 23.013-36.883 34.4a7.612 7.612 0 0 1-4.2 2.2c-9.3 0.448-18.616 0.618-27.926 0.88z" fill="#FDDEB7" p-id="30355"></path><path d="M512.985 474.36l0.005 51.48c-9.3-0.275-18.6-0.481-27.887-0.9a6.766 6.766 0 0 1-3.844-1.835c-12.12-11.133-24.21-22.3-36.152-33.624a7.2 7.2 0 0 1-1.986-5.1c0.62-8.111 1.746-16.182 2.462-24.288 0.278-3.149 1.152-3.423 3.858-2.008a138.13 138.13 0 0 0 50.125 15.409c4.456 0.461 8.945 0.586 13.419 0.866z" fill="#F8E9D5" p-id="30356"></path><path d="M692.841 731.771c-9.485 0-18.97 0.058-28.455-0.016-9.893-0.077-13.835-6.567-9.177-15.268 9.492-17.734 19.126-35.391 28.667-53.1 1.914-3.553 4.288-6.344 8.732-6.39 4.663-0.049 7.159 2.849 9.158 6.563 9.376 17.419 18.822 34.8 28.176 52.231 5.137 9.572 1.273 15.926-9.645 15.972-9.151 0.037-18.304 0.008-27.456 0.008z" fill="#FCE081" p-id="30357"></path></svg>